<svg width="653" height="516" viewBox="0 0 653 516" fill="none" xmlns="http://www.w3.org/2000/svg">
<path d="M148.601 264.583C170.15 264.583 187.619 247.114 187.619 225.564C187.619 204.015 170.15 186.546 148.601 186.546C127.052 186.546 109.584 204.015 109.584 225.564C109.584 247.114 127.052 264.583 148.601 264.583Z" fill="#FF6584"/>
<path d="M390.321 269.744C390.321 346.562 344.655 373.384 288.322 373.384C231.99 373.384 186.323 346.562 186.323 269.744C186.323 192.926 288.322 95.201 288.322 95.201C288.322 95.201 390.321 192.926 390.321 269.744Z" fill="#FDB854"/>
<path d="M284.607 361.633L285.651 297.343L329.126 217.807L285.815 287.258L286.285 258.351L316.247 200.808L286.409 250.701L287.254 198.71L319.338 152.898L287.386 190.534L287.914 95.2013L284.598 221.405L284.871 216.199L252.249 166.267L284.347 226.193L281.308 284.258L281.217 282.717L243.612 230.171L281.104 288.162L280.723 295.423L280.655 295.533L280.686 296.129L272.975 443.445H283.278L284.514 367.353L321.914 309.505L284.607 361.633Z" fill="#3F3D56"/>
<path d="M488.736 342.299C488.736 419.117 443.07 445.939 386.737 445.939C330.405 445.939 284.738 419.117 284.738 342.299C284.738 265.481 386.737 167.756 386.737 167.756C386.737 167.756 488.736 265.481 488.736 342.299Z" fill="#3F3D56"/>
<path d="M383.022 434.188L384.067 369.898L427.54 290.363L384.23 359.813L384.7 330.906L414.662 273.363L384.824 323.256V323.256L385.669 271.265L417.753 225.454L385.801 263.09L386.329 167.756L383.012 293.96L383.285 288.754L350.664 238.822L382.762 298.748L379.723 356.813L379.632 355.272L342.027 302.726L379.518 360.717L379.138 367.979L379.07 368.088L379.101 368.684L371.39 516H381.692L382.929 439.908L420.328 382.06L383.022 434.188Z" fill="#F2F2F2"/>
<path d="M296.935 342.299C296.935 419.117 251.269 445.939 194.936 445.939C138.604 445.939 92.937 419.117 92.937 342.299C92.937 265.481 194.936 167.756 194.936 167.756C194.936 167.756 296.935 265.481 296.935 342.299Z" fill="#3F3D56"/>
<path d="M191.22 434.188L192.265 369.898L235.74 290.363L192.429 359.813L192.898 330.906L222.861 273.363L193.023 323.256V323.256L193.867 271.265L225.952 225.454L194 263.09L194.528 167.756L191.212 293.96L191.484 288.754L158.864 238.822L190.961 298.748L187.921 356.813L187.831 355.272L150.225 302.726L187.717 360.717L187.337 367.979L187.269 368.088L187.3 368.684L179.588 516H189.891L191.127 439.908L228.528 382.06L191.22 434.188Z" fill="#F2F2F2"/>
<path d="M290.919 515.351C242.135 515.351 194.86 498.436 157.149 467.487C119.438 436.538 93.6246 393.471 84.1072 345.623C74.5897 297.776 81.957 248.108 104.954 205.084C127.95 162.059 165.154 128.339 210.224 109.67C255.295 91.0008 305.445 88.537 352.129 102.698C398.812 116.86 439.142 146.77 466.245 187.334C493.348 227.897 505.548 276.603 500.766 325.153C495.985 373.703 474.517 419.093 440.021 453.59C420.487 473.232 397.25 488.804 371.657 499.405C346.063 510.007 318.621 515.426 290.919 515.351ZM290.919 95.2294C175.537 95.2294 81.6664 189.101 81.6664 304.485C81.6664 419.869 175.537 513.741 290.919 513.741C406.301 513.741 500.172 419.869 500.172 304.485C500.172 189.101 406.301 95.2294 290.919 95.2294V95.2294Z" fill="#2F2E41"/>
<path d="M463.34 424.789V514.584H118.529V424.789L290.934 334.993L291.294 335.179L463.34 424.789Z" fill="#F2F2F2"/>
<path opacity="0.1" d="M463.34 424.789V514.584H291.294V335.179L463.34 424.789Z" fill="black"/>
<path d="M276.208 389.948L263.278 394.83V375.581L276.208 369.913V389.948Z" fill="#3F3D56"/>
<path d="M133.255 443.825L128.945 445.455V433.768L133.255 431.863V443.825Z" fill="#3F3D56"/>
<path d="M148.341 438.797L143.312 440.681V428.021L148.341 425.814V438.797Z" fill="#3F3D56"/>
<path d="M164.863 432.331L159.116 434.493V420.837L164.863 418.308V432.331Z" fill="#3F3D56"/>
<path d="M184.977 424.429L177.793 427.141V412.935L184.977 409.784V424.429Z" fill="#3F3D56"/>
<path d="M209.401 415.091L200.781 418.349V402.879L209.401 399.097V415.091Z" fill="#3F3D56"/>
<path d="M238.854 404.315L228.797 408.104V390.666L238.854 386.257V404.315Z" fill="#3F3D56"/>
<path d="M133.255 467.531L128.945 468.615V456.756L133.255 455.393V467.531Z" fill="#3F3D56"/>
<path d="M148.341 463.94L143.312 465.199V452.446L148.341 450.861V463.94Z" fill="#3F3D56"/>
<path d="M164.863 459.629L159.116 461.073V447.417L164.863 445.604V459.629Z" fill="#3F3D56"/>
<path d="M184.977 454.601L177.793 456.405V441.67L184.977 439.41V454.601Z" fill="#3F3D56"/>
<path d="M209.401 448.135L200.781 450.311V434.486L209.401 431.775V448.135Z" fill="#3F3D56"/>
<path d="M238.854 440.952L228.078 443.662V425.866L238.854 422.476V440.952Z" fill="#3F3D56"/>
<path d="M276.208 431.613L263.278 434.863V415.09L276.208 411.034V431.613Z" fill="#3F3D56"/>
<path d="M276.208 472.56L263.278 474.206V454.601L276.208 452.155V472.56Z" fill="#3F3D56"/>
<path d="M133.255 490.519L128.945 491.073V479.744L133.255 478.922V490.519Z" fill="#3F3D56"/>
<path d="M148.341 489.083L143.312 489.716V477.589L148.341 476.645V489.083Z" fill="#3F3D56"/>
<path d="M164.863 486.927L159.116 487.654V473.997L164.863 472.902V486.927Z" fill="#3F3D56"/>
<path d="M184.977 484.054L177.793 484.972V470.405L184.977 469.035V484.054Z" fill="#3F3D56"/>
<path d="M209.401 481.18L200.781 482.274V466.095L209.401 464.453V481.18Z" fill="#3F3D56"/>
<path d="M238.854 477.589L228.078 478.951V461.066L238.854 459.021V477.589Z" fill="#3F3D56"/>
<path d="M449.332 443.825L453.643 445.455V433.768L449.332 431.863V443.825Z" fill="#3F3D56"/>
<path d="M434.246 438.797L439.275 440.681V428.021L434.246 425.814V438.797Z" fill="#3F3D56"/>
<path d="M417.725 432.331L423.472 434.493V420.837L417.725 418.308V432.331Z" fill="#3F3D56"/>
<path d="M397.61 424.429L404.794 427.141V412.935L397.61 409.784V424.429Z" fill="#3F3D56"/>
<path d="M373.187 415.091L381.807 418.349V402.879L373.187 399.097V415.091Z" fill="#3F3D56"/>
<path d="M343.734 404.315L353.791 408.104V390.666L343.734 386.257V404.315Z" fill="#3F3D56"/>
<path d="M449.332 467.531L453.643 468.615V456.756L449.332 455.393V467.531Z" fill="#3F3D56"/>
<path d="M434.246 463.94L439.275 465.199V452.446L434.246 450.861V463.94Z" fill="#3F3D56"/>
<path d="M417.725 459.629L423.472 461.073V447.417L417.725 445.604V459.629Z" fill="#3F3D56"/>
<path d="M397.61 454.601L404.794 456.405V441.67L397.61 439.41V454.601Z" fill="#3F3D56"/>
<path d="M373.187 448.135L381.807 450.311V434.486L373.187 431.775V448.135Z" fill="#3F3D56"/>
<path d="M343.734 440.952L354.509 443.662V425.866L343.734 422.476V440.952Z" fill="#3F3D56"/>
<path d="M306.379 431.613L319.31 434.863V415.09L306.379 411.034V431.613Z" fill="#3F3D56"/>
<path d="M306.379 472.56L319.31 474.206V454.601L306.379 452.155V472.56Z" fill="#3F3D56"/>
<path d="M449.332 490.519L453.643 491.073V479.744L449.332 478.922V490.519Z" fill="#3F3D56"/>
<path d="M434.246 489.083L439.275 489.716V477.589L434.246 476.645V489.083Z" fill="#3F3D56"/>
<path d="M417.725 486.927L423.472 487.654V473.997L417.725 472.902V486.927Z" fill="#3F3D56"/>
<path d="M397.61 484.054L404.794 484.972V470.405L397.61 469.035V484.054Z" fill="#3F3D56"/>
<path d="M373.187 481.18L381.807 482.274V466.095L373.187 464.453V481.18Z" fill="#3F3D56"/>
<path d="M343.734 477.589L354.509 478.951V461.066L343.734 459.021V477.589Z" fill="#3F3D56"/>
<path d="M318.591 394.977L305.661 390.1V369.834L318.591 375.503V394.977Z" fill="#3F3D56"/>
<path d="M440.005 498.595H438.951V515.459H440.005V498.595Z" fill="#2F2E41"/>
<path d="M452.422 503.185H451.676V515.135H452.422V503.185Z" fill="#2F2E41"/>
<path d="M463.458 504.645H462.801V515.147H463.458V504.645Z" fill="#2F2E41"/>
<path d="M409.104 493.249V514.944L395.097 514.922L381.089 514.9V490.519L395.097 491.884L409.104 493.249Z" fill="#3F3D56"/>
<path d="M173.483 514.944L201.499 514.899V490.519L173.483 493.246V514.944Z" fill="#3F3D56"/>
<path d="M627.71 514.225H0V515.662H627.71V514.225Z" fill="#2F2E41"/>
<path opacity="0.1" d="M409.104 493.249V514.944L395.097 514.922V491.884L409.104 493.249Z" fill="black"/>
<path d="M289.498 495.188H288.061V515.303H289.498V495.188Z" fill="#2F2E41"/>
<path d="M297.07 488.028C297.07 495.076 293.305 500.958 288.78 501.16C284.379 501.356 280.901 496.082 280.901 489.384C280.901 482.687 289.498 464.299 289.498 464.299C289.498 464.299 297.07 480.979 297.07 488.028Z" fill="#FDB854"/>
<path d="M120.477 501.635H119.62V513.632H120.477V501.635Z" fill="#2F2E41"/>
<path d="M124.994 497.364C124.994 501.568 122.748 505.076 120.049 505.197C117.424 505.314 115.349 502.168 115.349 498.173C115.349 494.178 120.477 483.21 120.477 483.21C120.477 483.21 124.994 493.159 124.994 497.364Z" fill="#FDB854"/>
<path d="M445.275 499.26C445.275 503.258 442.755 506.381 439.478 506.228C435.998 506.064 433.015 502.311 433.015 497.853C433.015 493.395 439.478 482.258 439.478 482.258C439.478 482.258 445.275 495.262 445.275 499.26Z" fill="#FDB854"/>
<path d="M456.157 503.656C456.157 506.49 454.371 508.703 452.049 508.594C449.583 508.478 447.47 505.818 447.47 502.66C447.47 499.501 452.049 491.609 452.049 491.609C452.049 491.609 456.157 500.823 456.157 503.656Z" fill="#FDB854"/>
<path d="M466.74 505.059C466.74 507.549 465.17 509.494 463.129 509.398C460.962 509.296 459.105 506.959 459.105 504.183C459.105 501.406 463.129 494.47 463.129 494.47C463.129 494.47 466.74 502.569 466.74 505.059Z" fill="#FDB854"/>
<path d="M471.841 115.726C471.841 115.726 464.849 136.703 468.733 141.364C472.618 146.026 445.426 127.38 445.426 127.38L460.187 110.288L471.841 115.726Z" fill="#A0616A"/>
<path d="M455.896 115.692C475.16 115.692 490.777 100.075 490.777 80.81C490.777 61.5452 475.16 45.928 455.896 45.928C436.631 45.928 421.014 61.5452 421.014 80.81C421.014 100.075 436.631 115.692 455.896 115.692Z" fill="#2F2E41"/>
<path d="M591.484 351.908L573.616 365.893L563.516 349.577L581.384 337.147L591.484 351.908Z" fill="#A0616A"/>
<path d="M566.235 457.18L570.896 479.711L584.104 497.58C584.104 497.58 619.841 508.457 595.757 513.895C571.673 519.334 566.235 510.011 566.235 510.011L549.143 495.249V515.449H538.266L535.936 486.703C535.936 486.703 534.382 478.157 541.374 468.834L542.928 454.85L566.235 457.18Z" fill="#2F2E41"/>
<path d="M476.114 178.268L482.329 214.006C482.329 214.006 548.366 207.014 553.028 220.221C557.689 233.429 559.243 237.313 559.243 237.313L546.035 241.975L539.82 230.321C537.927 229.651 535.917 229.374 533.913 229.508C531.909 229.641 529.954 230.182 528.167 231.098C521.951 234.206 467.568 241.975 463.684 231.875C459.799 221.775 448.922 184.483 448.922 184.483L465.237 171.276L476.114 178.268Z" fill="#A0616A"/>
<path opacity="0.1" d="M476.114 178.268L482.329 214.006C482.329 214.006 548.366 207.014 553.028 220.221C557.689 233.429 559.243 237.313 559.243 237.313L546.035 241.975L539.82 230.321C537.927 229.651 535.917 229.374 533.913 229.508C531.909 229.641 529.954 230.182 528.167 231.098C521.951 234.206 467.568 241.975 463.684 231.875C459.799 221.775 448.922 184.483 448.922 184.483L465.237 171.276L476.114 178.268Z" fill="black"/>
<path d="M512.629 281.598L518.067 300.244L532.051 371.72C532.051 371.72 533.605 424.55 535.936 430.765C538.266 436.981 538.266 437.758 535.936 440.088C533.605 442.419 528.944 450.188 535.936 454.85C542.928 459.511 567.789 464.95 568.566 459.511C569.343 454.073 569.343 445.527 568.566 441.642C567.789 437.758 570.896 377.158 570.896 377.158L561.573 284.705L529.72 269.944L512.629 281.598Z" fill="#2F2E41"/>
<path opacity="0.1" d="M512.629 281.598L518.067 300.244L532.051 371.72C532.051 371.72 533.605 424.55 535.936 430.765C538.266 436.981 538.266 437.758 535.936 440.088C533.605 442.419 528.944 450.188 535.936 454.85C542.928 459.511 567.789 464.95 568.566 459.511C569.343 454.073 569.343 445.527 568.566 441.642C567.789 437.758 570.896 377.158 570.896 377.158L561.573 284.705L529.72 269.944L512.629 281.598Z" fill="black"/>
<path d="M546.035 208.568L563.127 241.198C563.127 241.198 661.017 284.705 652.471 302.574C643.925 320.443 596.534 353.851 596.534 353.851C596.534 353.851 594.203 367.058 587.211 363.174C580.219 359.289 563.127 339.089 564.681 336.759C566.235 334.428 571.673 328.989 574.004 329.766C576.335 330.543 603.526 309.567 603.526 309.567L556.912 297.913C556.912 297.913 500.975 296.359 497.867 269.944C494.76 243.529 497.867 238.867 497.867 238.867L493.983 230.321L525.836 210.898L546.035 208.568Z" fill="#2F2E41"/>
<path d="M570.119 337.535L553.804 352.297C553.804 352.297 539.82 346.081 531.274 348.412C522.728 350.743 507.967 352.297 507.967 352.297L510.298 365.504L530.12 361.847L514.182 384.15C514.182 384.15 514.182 419.112 524.282 419.112C534.382 419.112 531.274 398.135 531.274 398.135L562.35 374.05C562.35 374.05 577.889 367.835 579.442 367.835C580.996 367.835 570.119 337.535 570.119 337.535Z" fill="#2F2E41"/>
<path d="M468.733 121.942C483.322 121.942 495.148 110.115 495.148 95.5264C495.148 80.9378 483.322 69.1113 468.733 69.1113C454.145 69.1113 442.319 80.9378 442.319 95.5264C442.319 110.115 454.145 121.942 468.733 121.942Z" fill="#A0616A"/>
<path d="M442.707 116.115C442.707 116.115 455.138 113.007 459.022 116.115C462.907 119.222 463.684 126.215 469.122 126.992C474.56 127.768 479.222 127.768 479.999 128.545C480.775 129.322 498.644 151.076 498.644 151.076C498.644 151.076 509.521 157.291 511.852 165.837C514.182 174.383 537.489 203.129 540.597 206.237C543.705 209.345 520.398 224.883 512.629 230.321C504.859 235.76 482.329 238.09 475.337 225.66C468.345 213.229 430.277 132.43 442.707 116.115Z" fill="#575A89"/>
<path d="M472.23 166.614L478.445 202.352C478.445 202.352 544.482 195.36 549.143 208.568C553.804 221.775 555.358 225.66 555.358 225.66L542.151 230.321L535.936 218.667C534.043 217.997 532.033 217.72 530.029 217.854C528.025 217.987 526.069 218.529 524.282 219.444C518.067 222.552 463.684 230.321 459.799 220.221C455.915 210.121 445.038 172.829 445.038 172.829L461.353 159.622L472.23 166.614Z" fill="#A0616A"/>
<path d="M457.383 119.383C457.383 119.383 476.114 158.845 474.56 169.722C473.006 180.599 467.568 172.829 467.568 172.829C467.568 172.829 460.576 161.953 457.468 168.168C454.361 174.383 450.476 182.929 447.369 182.152C444.261 181.376 427.169 123.884 436.492 118.445C445.815 113.007 457.383 119.383 457.383 119.383Z" fill="#575A89"/>
<path d="M418.107 69.7641C437.372 69.7641 452.989 54.1469 452.989 34.8821C452.989 15.6172 437.372 0 418.107 0C398.843 0 383.226 15.6172 383.226 34.8821C383.226 54.1469 398.843 69.7641 418.107 69.7641Z" fill="#2F2E41"/>
<path d="M388.02 63.7666C392.535 67.0297 397.765 69.1642 403.274 69.9914C408.783 70.8185 414.41 70.3144 419.684 68.5211C424.958 66.7278 429.726 63.6975 433.588 59.6838C437.451 55.67 440.297 50.7895 441.886 45.4506C441.285 50.2351 439.698 54.8429 437.226 58.9831C434.753 63.1233 431.449 66.706 427.523 69.5049C423.596 72.3038 419.132 74.2582 414.412 75.2446C409.691 76.2311 404.818 76.2282 400.099 75.2361C395.38 74.244 390.918 72.2844 386.995 69.4808C383.071 66.6772 379.772 63.0907 377.304 58.9475C374.837 54.8044 373.255 50.1947 372.659 45.4095C372.064 40.6243 372.466 35.7675 373.842 31.1458C373.061 37.3551 373.965 43.6602 376.459 49.3998C378.954 55.1394 382.947 60.1019 388.02 63.7666V63.7666Z" fill="#2F2E41"/>
<path d="M448.721 112.204C462.848 112.204 474.3 100.751 474.3 86.6237C474.3 72.4962 462.848 61.0436 448.721 61.0436C434.593 61.0436 423.141 72.4962 423.141 86.6237C423.141 100.751 434.593 112.204 448.721 112.204Z" fill="#2F2E41"/>
<path d="M468.104 94.7629C480.626 94.7629 490.777 86.8241 490.777 77.0311C490.777 67.2382 480.626 59.2994 468.104 59.2994C455.582 59.2994 445.431 67.2382 445.431 77.0311C445.431 86.8241 455.582 94.7629 468.104 94.7629Z" fill="#2F2E41"/>
<path d="M469.122 107.18C471.911 107.18 474.172 103.18 474.172 98.2456C474.172 93.3112 471.911 89.311 469.122 89.311C466.333 89.311 464.072 93.3112 464.072 98.2456C464.072 103.18 466.333 107.18 469.122 107.18Z" fill="#A0616A"/>
<path d="M538.441 229.982C538.441 229.982 552.194 222.091 554.747 224.07C557.301 226.048 558.435 232.24 558.435 232.24L542.539 238.479L537.878 229.933L538.441 229.982Z" fill="#2F2E41"/>
</svg>
